<?xml version="1.0" encoding="UTF-8"?>
<svg xmlns="http://www.w3.org/2000/svg" xmlns:xlink="http://www.w3.org/1999/xlink" width="25px" height="25px" viewBox="0 0 25 25" version="1.1">
<g id="surface1">
<path style=" stroke:none;fill-rule:nonzero;fill:rgb(0%,0%,0%);fill-opacity:1;" d="M 24.476562 17.039062 L 23.929688 17.039062 L 23.929688 15.050781 L 24.503906 15.050781 C 24.777344 15.050781 25 14.828125 25 14.554688 C 25 14.277344 24.777344 14.054688 24.503906 14.054688 L 23.929688 14.054688 L 23.929688 12.070312 L 24.476562 12.070312 C 24.753906 12.070312 24.976562 11.847656 24.976562 11.574219 C 24.976562 6.667969 20.984375 2.675781 16.078125 2.675781 L 8.921875 2.675781 C 4.015625 2.675781 0.0234375 6.667969 0.0234375 11.574219 C 0.0234375 11.847656 0.246094 12.070312 0.523438 12.070312 L 1.070312 12.070312 L 1.070312 14.054688 L 0.496094 14.054688 C 0.222656 14.054688 0 14.28125 0 14.554688 C 0 14.828125 0.222656 15.050781 0.496094 15.050781 L 1.070312 15.050781 L 1.070312 17.039062 L 0.523438 17.039062 C 0.246094 17.039062 0.0234375 17.261719 0.0234375 17.535156 L 0.0234375 20.425781 C 0.0234375 21.472656 0.875 22.324219 1.921875 22.324219 L 23.078125 22.324219 C 24.125 22.324219 24.976562 21.472656 24.976562 20.425781 L 24.976562 17.535156 C 24.976562 17.261719 24.753906 17.039062 24.476562 17.039062 Z M 1.035156 11.074219 C 1.292969 6.949219 4.734375 3.671875 8.921875 3.671875 L 16.078125 3.671875 C 20.269531 3.671875 23.707031 6.949219 23.964844 11.074219 Z M 22.933594 15.050781 L 22.933594 17.039062 L 2.066406 17.039062 L 2.066406 15.050781 Z M 2.066406 14.054688 L 2.066406 12.070312 L 22.933594 12.070312 L 22.933594 14.054688 Z M 23.980469 20.425781 C 23.980469 20.925781 23.574219 21.328125 23.078125 21.328125 L 1.921875 21.328125 C 1.425781 21.328125 1.019531 20.925781 1.019531 20.425781 L 1.019531 18.035156 L 23.980469 18.035156 Z M 23.980469 20.425781 "/>
<path style=" stroke:none;fill-rule:nonzero;fill:rgb(0%,0%,0%);fill-opacity:1;" d="M 8.722656 4.414062 L 8.523438 4.414062 C 8.25 4.414062 8.027344 4.636719 8.027344 4.914062 C 8.027344 5.1875 8.25 5.410156 8.523438 5.410156 L 8.722656 5.410156 C 9 5.410156 9.222656 5.1875 9.222656 4.914062 C 9.222656 4.636719 9 4.414062 8.722656 4.414062 Z M 8.722656 4.414062 "/>
<path style=" stroke:none;fill-rule:nonzero;fill:rgb(0%,0%,0%);fill-opacity:1;" d="M 11.207031 4.414062 L 11.007812 4.414062 C 10.734375 4.414062 10.511719 4.636719 10.511719 4.914062 C 10.511719 5.1875 10.734375 5.410156 11.007812 5.410156 L 11.207031 5.410156 C 11.484375 5.410156 11.707031 5.1875 11.707031 4.914062 C 11.707031 4.636719 11.484375 4.414062 11.207031 4.414062 Z M 11.207031 4.414062 "/>
<path style=" stroke:none;fill-rule:nonzero;fill:rgb(0%,0%,0%);fill-opacity:1;" d="M 13.992188 4.414062 L 13.792969 4.414062 C 13.515625 4.414062 13.292969 4.636719 13.292969 4.914062 C 13.292969 5.1875 13.515625 5.410156 13.792969 5.410156 L 13.992188 5.410156 C 14.265625 5.410156 14.488281 5.1875 14.488281 4.914062 C 14.488281 4.636719 14.265625 4.414062 13.992188 4.414062 Z M 13.992188 4.414062 "/>
<path style=" stroke:none;fill-rule:nonzero;fill:rgb(0%,0%,0%);fill-opacity:1;" d="M 16.476562 4.414062 L 16.277344 4.414062 C 16 4.414062 15.777344 4.636719 15.777344 4.914062 C 15.777344 5.1875 16 5.410156 16.277344 5.410156 L 16.476562 5.410156 C 16.75 5.410156 16.972656 5.1875 16.972656 4.914062 C 16.972656 4.636719 16.75 4.414062 16.476562 4.414062 Z M 16.476562 4.414062 "/>
<path style=" stroke:none;fill-rule:nonzero;fill:rgb(0%,0%,0%);fill-opacity:1;" d="M 10.511719 9.433594 L 10.214844 9.433594 C 9.9375 9.433594 9.714844 9.65625 9.714844 9.933594 C 9.714844 10.207031 9.9375 10.429688 10.214844 10.429688 L 10.511719 10.429688 C 10.789062 10.429688 11.011719 10.207031 11.011719 9.933594 C 11.011719 9.65625 10.789062 9.433594 10.511719 9.433594 Z M 10.511719 9.433594 "/>
<path style=" stroke:none;fill-rule:nonzero;fill:rgb(0%,0%,0%);fill-opacity:1;" d="M 8.324219 9.433594 L 2.511719 9.433594 C 2.234375 9.433594 2.011719 9.65625 2.011719 9.933594 C 2.011719 10.207031 2.234375 10.429688 2.511719 10.429688 L 8.324219 10.429688 C 8.601562 10.429688 8.824219 10.207031 8.824219 9.933594 C 8.824219 9.65625 8.601562 9.433594 8.324219 9.433594 Z M 8.324219 9.433594 "/>
</g>
</svg>
