<?xml version="1.0" encoding="UTF-8"?>
<svg xmlns="http://www.w3.org/2000/svg" xmlns:xlink="http://www.w3.org/1999/xlink" width="25px" height="25px" viewBox="0 0 25 25" version="1.1">
<g id="surface1">
<path style=" stroke:none;fill-rule:nonzero;fill:rgb(0%,0%,0%);fill-opacity:1;" d="M 22.097656 15.488281 L 22.097656 14.183594 C 23.292969 13.988281 24.207031 12.953125 24.207031 11.703125 C 24.207031 10.453125 23.292969 9.414062 22.097656 9.21875 L 22.097656 7.929688 C 22.753906 7.8125 23.253906 7.242188 23.253906 6.554688 C 23.253906 2.941406 20.3125 0 16.699219 0 L 8.300781 0 C 4.6875 0 1.746094 2.941406 1.746094 6.554688 C 1.746094 7.242188 2.246094 7.8125 2.902344 7.929688 L 2.902344 9.21875 C 1.707031 9.414062 0.792969 10.453125 0.792969 11.703125 C 0.792969 12.953125 1.707031 13.988281 2.902344 14.183594 L 2.902344 15.488281 C 1.707031 15.683594 0.792969 16.722656 0.792969 17.972656 C 0.792969 18.886719 1.285156 19.691406 2.019531 20.128906 C 1.847656 20.363281 1.746094 20.648438 1.746094 20.957031 L 1.746094 22.089844 C 1.746094 23.695312 3.050781 25 4.65625 25 L 20.34375 25 C 21.949219 25 23.253906 23.695312 23.253906 22.089844 L 23.253906 20.957031 C 23.253906 20.648438 23.152344 20.363281 22.980469 20.128906 C 23.714844 19.691406 24.207031 18.886719 24.207031 17.972656 C 24.207031 16.722656 23.292969 15.683594 22.097656 15.488281 Z M 2.675781 6.554688 C 2.675781 3.453125 5.199219 0.925781 8.300781 0.925781 L 16.699219 0.925781 C 19.800781 0.925781 22.324219 3.453125 22.324219 6.554688 C 22.324219 6.8125 22.117188 7.023438 21.859375 7.023438 L 3.140625 7.023438 C 2.882812 7.023438 2.675781 6.8125 2.675781 6.554688 Z M 3.828125 9.1875 L 3.828125 7.949219 L 21.171875 7.949219 L 21.171875 9.1875 Z M 10.363281 10.113281 L 8.984375 11.496094 L 7.601562 10.113281 Z M 1.71875 11.703125 C 1.71875 10.828125 2.433594 10.113281 3.308594 10.113281 L 6.289062 10.113281 L 8.65625 12.476562 C 8.746094 12.570312 8.863281 12.613281 8.984375 12.613281 C 9.101562 12.613281 9.21875 12.570312 9.3125 12.476562 L 11.675781 10.113281 L 21.691406 10.113281 C 22.566406 10.113281 23.28125 10.828125 23.28125 11.703125 C 23.28125 12.578125 22.566406 13.292969 21.691406 13.292969 L 3.308594 13.292969 C 2.433594 13.292969 1.71875 12.578125 1.71875 11.703125 Z M 3.828125 15.457031 L 3.828125 14.21875 L 21.171875 14.21875 L 21.171875 15.457031 Z M 18.378906 16.382812 L 16.996094 17.761719 L 15.617188 16.382812 Z M 22.324219 22.089844 C 22.324219 23.183594 21.4375 24.074219 20.34375 24.074219 L 4.65625 24.074219 C 3.5625 24.074219 2.675781 23.183594 2.675781 22.089844 L 2.675781 20.957031 C 2.675781 20.699219 2.882812 20.488281 3.140625 20.488281 L 21.859375 20.488281 C 22.117188 20.488281 22.324219 20.699219 22.324219 20.957031 Z M 21.691406 19.5625 L 3.308594 19.5625 C 2.433594 19.5625 1.71875 18.847656 1.71875 17.972656 C 1.71875 17.09375 2.433594 16.382812 3.308594 16.382812 L 14.304688 16.382812 L 16.667969 18.746094 C 16.757812 18.832031 16.875 18.882812 16.996094 18.882812 C 17.121094 18.882812 17.238281 18.832031 17.324219 18.746094 L 19.691406 16.382812 L 21.691406 16.382812 C 22.566406 16.382812 23.28125 17.09375 23.28125 17.972656 C 23.28125 18.847656 22.566406 19.5625 21.691406 19.5625 Z M 21.691406 19.5625 "/>
<path style=" stroke:none;fill-rule:nonzero;fill:rgb(0%,0%,0%);fill-opacity:1;" d="M 8.417969 2.355469 C 8.417969 2.613281 8.210938 2.820312 7.957031 2.820312 C 7.699219 2.820312 7.492188 2.613281 7.492188 2.355469 C 7.492188 2.101562 7.699219 1.890625 7.957031 1.890625 C 8.210938 1.890625 8.417969 2.101562 8.417969 2.355469 Z M 8.417969 2.355469 "/>
<path style=" stroke:none;fill-rule:nonzero;fill:rgb(0%,0%,0%);fill-opacity:1;" d="M 17.507812 2.355469 C 17.507812 2.613281 17.300781 2.820312 17.042969 2.820312 C 16.789062 2.820312 16.582031 2.613281 16.582031 2.355469 C 16.582031 2.101562 16.789062 1.890625 17.042969 1.890625 C 17.300781 1.890625 17.507812 2.101562 17.507812 2.355469 Z M 17.507812 2.355469 "/>
<path style=" stroke:none;fill-rule:nonzero;fill:rgb(0%,0%,0%);fill-opacity:1;" d="M 11.449219 2.355469 C 11.449219 2.613281 11.242188 2.820312 10.984375 2.820312 C 10.730469 2.820312 10.523438 2.613281 10.523438 2.355469 C 10.523438 2.101562 10.730469 1.890625 10.984375 1.890625 C 11.242188 1.890625 11.449219 2.101562 11.449219 2.355469 Z M 11.449219 2.355469 "/>
<path style=" stroke:none;fill-rule:nonzero;fill:rgb(0%,0%,0%);fill-opacity:1;" d="M 14.480469 2.355469 C 14.480469 2.613281 14.269531 2.820312 14.015625 2.820312 C 13.757812 2.820312 13.550781 2.613281 13.550781 2.355469 C 13.550781 2.101562 13.757812 1.890625 14.015625 1.890625 C 14.269531 1.890625 14.480469 2.101562 14.480469 2.355469 Z M 14.480469 2.355469 "/>
</g>
</svg>
