<?xml version="1.0" encoding="UTF-8"?>
<svg xmlns="http://www.w3.org/2000/svg" xmlns:xlink="http://www.w3.org/1999/xlink" width="25px" height="25px" viewBox="0 0 25 25" version="1.1">
<g id="surface1">
<path style=" stroke:none;fill-rule:evenodd;fill:rgb(0%,0%,0%);fill-opacity:1;" d="M 23.089844 22.3125 L 13.152344 0.226562 C 13.089844 0.0898438 12.953125 0 12.800781 -0.00390625 C 12.800781 -0.00390625 12.796875 -0.00390625 12.796875 -0.00390625 C 12.648438 -0.00390625 12.511719 0.0820312 12.445312 0.21875 L 1.914062 22.027344 C 1.867188 22.121094 1.863281 22.226562 1.898438 22.324219 C 1.929688 22.425781 2.003906 22.503906 2.097656 22.550781 C 5.480469 24.183594 9.136719 25.003906 12.792969 25.003906 C 16.230469 25.003906 19.671875 24.28125 22.894531 22.828125 C 23.089844 22.742188 23.179688 22.511719 23.089844 22.3125 Z M 12.785156 1.3125 L 20.941406 19.441406 C 15.550781 21.816406 9.445312 21.75 4.113281 19.269531 Z M 2.789062 22.011719 L 3.773438 19.972656 C 6.609375 21.296875 9.65625 21.964844 12.707031 21.964844 C 15.617188 21.964844 18.527344 21.359375 21.261719 20.152344 L 22.214844 22.273438 C 15.984375 24.957031 8.949219 24.863281 2.789062 22.011719 Z M 2.789062 22.011719 "/>
<path style=" stroke:none;fill-rule:evenodd;fill:rgb(0%,0%,0%);fill-opacity:1;" d="M 7.75 17.707031 C 7.964844 18.183594 8.351562 18.546875 8.839844 18.730469 C 9.0625 18.816406 9.296875 18.859375 9.53125 18.859375 C 9.804688 18.859375 10.078125 18.800781 10.332031 18.6875 C 11.3125 18.246094 11.753906 17.085938 11.3125 16.105469 C 10.871094 15.125 9.710938 14.683594 8.730469 15.125 C 7.746094 15.566406 7.308594 16.726562 7.75 17.707031 Z M 9.050781 15.835938 C 9.207031 15.769531 9.367188 15.734375 9.527344 15.734375 C 9.976562 15.734375 10.402344 15.992188 10.597656 16.425781 C 10.863281 17.015625 10.601562 17.710938 10.011719 17.976562 C 9.726562 18.101562 9.40625 18.113281 9.113281 18 C 8.820312 17.890625 8.589844 17.671875 8.460938 17.386719 C 8.199219 16.796875 8.460938 16.101562 9.050781 15.835938 Z M 9.050781 15.835938 "/>
<path style=" stroke:none;fill-rule:evenodd;fill:rgb(0%,0%,0%);fill-opacity:1;" d="M 14.890625 14.746094 C 15.046875 14.808594 15.210938 14.835938 15.375 14.835938 C 15.566406 14.835938 15.753906 14.796875 15.933594 14.714844 C 16.265625 14.566406 16.523438 14.296875 16.652344 13.953125 C 16.78125 13.613281 16.769531 13.242188 16.621094 12.910156 C 16.3125 12.222656 15.5 11.914062 14.8125 12.222656 C 14.480469 12.371094 14.226562 12.644531 14.09375 12.984375 C 13.964844 13.324219 13.976562 13.695312 14.125 14.03125 C 14.277344 14.363281 14.546875 14.617188 14.890625 14.746094 Z M 14.824219 13.261719 C 14.882812 13.117188 14.992188 13 15.132812 12.933594 C 15.210938 12.898438 15.292969 12.882812 15.371094 12.882812 C 15.597656 12.882812 15.808594 13.011719 15.90625 13.230469 C 15.972656 13.371094 15.976562 13.53125 15.921875 13.675781 C 15.867188 13.824219 15.757812 13.9375 15.613281 14.003906 C 15.472656 14.066406 15.3125 14.070312 15.164062 14.015625 C 15.019531 13.960938 14.902344 13.851562 14.839844 13.710938 C 14.773438 13.566406 14.769531 13.40625 14.824219 13.261719 Z M 14.824219 13.261719 "/>
<path style=" stroke:none;fill-rule:evenodd;fill:rgb(0%,0%,0%);fill-opacity:1;" d="M 13.015625 9.082031 C 13.015625 9.621094 12.578125 10.058594 12.039062 10.058594 C 11.5 10.058594 11.0625 9.621094 11.0625 9.082031 C 11.0625 8.542969 11.5 8.105469 12.039062 8.105469 C 12.578125 8.105469 13.015625 8.542969 13.015625 9.082031 Z M 13.015625 9.082031 "/>
</g>
</svg>
