<?xml version="1.0" encoding="UTF-8"?>
<svg xmlns="http://www.w3.org/2000/svg" xmlns:xlink="http://www.w3.org/1999/xlink" width="25px" height="25px" viewBox="0 0 25 25" version="1.1">
<g id="surface1">
<path style=" stroke:none;fill-rule:nonzero;fill:rgb(0%,0%,0%);fill-opacity:1;" d="M 0.394531 3.132812 L 2.578125 7.0625 C 8.671875 3.667969 16.210938 3.570312 22.441406 7.019531 L 24.605469 3.113281 C 17.003906 -1.089844 7.8125 -0.988281 0.394531 3.132812 Z M 0.394531 3.132812 "/>
<path style=" stroke:none;fill-rule:nonzero;fill:rgb(0%,0%,0%);fill-opacity:1;" d="M 12.539062 5.496094 C 9.226562 5.496094 5.953125 6.328125 3.054688 7.933594 L 12.539062 25 L 21.960938 7.917969 C 20.523438 7.121094 17.945312 5.496094 12.539062 5.496094 Z M 12.277344 7.679688 C 12.277344 7.382812 12.519531 7.144531 12.792969 7.164062 C 13.089844 7.183594 13.371094 7.28125 13.605469 7.460938 C 13.824219 7.636719 13.863281 7.953125 13.6875 8.171875 C 13.589844 8.289062 13.339844 8.488281 12.972656 8.277344 C 12.910156 8.234375 12.835938 8.195312 12.753906 8.195312 C 12.476562 8.171875 12.257812 7.960938 12.277344 7.679688 Z M 6.921875 9.347656 C 6.589844 9.578125 6.304688 9.386719 6.207031 9.246094 C 5.929688 8.886719 5.828125 8.414062 5.929688 7.972656 C 5.992188 7.699219 6.269531 7.535156 6.546875 7.597656 C 6.824219 7.660156 6.988281 7.933594 6.925781 8.210938 C 6.886719 8.347656 6.925781 8.503906 7.007812 8.605469 C 7.179688 8.867188 7.140625 9.1875 6.921875 9.347656 Z M 12.496094 18.929688 C 12.4375 18.949219 12.0625 19.132812 11.84375 18.632812 C 11.691406 18.28125 11.546875 17.9375 11.328125 17.636719 C 11.171875 17.398438 11.226562 17.101562 11.46875 16.945312 C 11.707031 16.785156 12.003906 16.847656 12.160156 17.082031 C 12.414062 17.460938 12.613281 17.855469 12.773438 18.289062 C 12.875 18.550781 12.757812 18.851562 12.496094 18.929688 Z M 12.570312 15.753906 C 10.773438 15.753906 9.3125 14.296875 9.3125 12.5 C 9.3125 10.703125 10.773438 9.246094 12.570312 9.246094 C 14.363281 9.246094 15.824219 10.703125 15.824219 12.5 C 15.824219 14.296875 14.371094 15.753906 12.570312 15.753906 Z M 18.652344 10.019531 C 18.3125 10.132812 18.074219 9.9375 17.996094 9.722656 C 17.820312 9.25 17.738281 8.75 17.738281 8.253906 C 17.738281 7.980469 17.957031 7.761719 18.230469 7.761719 C 18.371094 7.761719 18.726562 7.882812 18.726562 8.277344 C 18.726562 8.652344 18.789062 9.03125 18.925781 9.386719 C 19.042969 9.621094 18.90625 9.921875 18.652344 10.019531 Z M 18.652344 10.019531 "/>
</g>
</svg>
