<?xml version="1.0" encoding="iso-8859-1"?>
<!-- Generator: Adobe Illustrator 19.0.0, SVG Export Plug-In . SVG Version: 6.00 Build 0)  -->
<svg version="1.1" id="Layer_1" xmlns="http://www.w3.org/2000/svg" xmlns:xlink="http://www.w3.org/1999/xlink" x="0px" y="0px"
	 viewBox="0 0 512 512" style="enable-background:new 0 0 512 512;" xml:space="preserve">
<g>
	<g>
		<path d="M501.292,348.941h-11.175v-40.67h11.684c5.633,0,10.199-4.567,10.199-10.199s-4.566-10.199-10.199-10.199h-11.684v-40.67
			h11.175c5.633,0,10.199-4.567,10.199-10.199c0-100.47-81.738-182.208-182.209-182.208H182.718
			c-100.47,0-182.209,81.738-182.209,182.208c0,5.632,4.566,10.199,10.199,10.199h11.175v40.67H10.199
			C4.566,287.872,0,292.44,0,298.072s4.566,10.199,10.199,10.199h11.684v40.67H10.708c-5.633,0-10.199,4.567-10.199,10.199v59.2
			c0,21.431,17.435,38.864,38.865,38.864h433.252c21.431,0,38.865-17.435,38.865-38.864v-59.2
			C511.491,353.508,506.925,348.941,501.292,348.941z M21.226,226.804c5.28-84.489,75.695-151.61,161.492-151.61h146.565
			c85.798,0,156.212,67.122,161.492,151.61H21.226z M469.719,308.271v40.67H42.282v-40.67H469.719z M42.282,287.872v-40.67h427.436
			v40.67H42.282z M491.093,418.341c0,10.182-8.284,18.466-18.467,18.466H39.374c-10.183,0-18.467-8.284-18.467-18.466V369.34
			h470.185V418.341z"/>
	</g>
</g>
<g>
	<g>
		<path d="M178.647,90.418h-4.072c-5.633,0-10.199,4.567-10.199,10.199s4.566,10.199,10.199,10.199h4.072
			c5.633,0,10.199-4.567,10.199-10.199S184.28,90.418,178.647,90.418z"/>
	</g>
</g>
<g>
	<g>
		<path d="M229.537,90.418h-4.072c-5.633,0-10.199,4.567-10.199,10.199s4.566,10.199,10.199,10.199h4.072
			c5.633,0,10.199-4.567,10.199-10.199S235.17,90.418,229.537,90.418z"/>
	</g>
</g>
<g>
	<g>
		<path d="M286.534,90.418h-4.072c-5.633,0-10.199,4.567-10.199,10.199s4.566,10.199,10.199,10.199h4.072
			c5.633,0,10.199-4.567,10.199-10.199S292.167,90.418,286.534,90.418z"/>
	</g>
</g>
<g>
	<g>
		<path d="M337.425,90.418h-4.072c-5.633,0-10.199,4.567-10.199,10.199s4.566,10.199,10.199,10.199h4.072
			c5.633,0,10.199-4.567,10.199-10.199S343.058,90.418,337.425,90.418z"/>
	</g>
</g>
<g>
	<g>
		<path d="M215.288,193.216h-6.107c-5.633,0-10.199,4.567-10.199,10.199c0,5.632,4.566,10.199,10.199,10.199h6.107
			c5.633,0,10.199-4.567,10.199-10.199C225.487,197.783,220.921,193.216,215.288,193.216z"/>
	</g>
</g>
<g>
	<g>
		<path d="M170.504,193.216H51.42c-5.633,0-10.199,4.567-10.199,10.199c0,5.632,4.566,10.199,10.199,10.199h119.084
			c5.633,0,10.199-4.567,10.199-10.199C180.703,197.783,176.137,193.216,170.504,193.216z"/>
	</g>
</g>
<g>
</g>
<g>
</g>
<g>
</g>
<g>
</g>
<g>
</g>
<g>
</g>
<g>
</g>
<g>
</g>
<g>
</g>
<g>
</g>
<g>
</g>
<g>
</g>
<g>
</g>
<g>
</g>
<g>
</g>
</svg>
